# Blender v2.92.0 OBJ File: 'CasaClaro2.blend'
# www.blender.org
mtllib Techo.mtl
o Techo_Plane
v -42.000000 2.686922 0.000000
v -2.000000 2.686922 0.000000
v -42.000000 2.686922 -40.000000
v -2.000000 2.686922 -40.000000
v -42.000000 2.546413 -40.000000
v -42.000000 2.546413 0.000000
v -2.000000 2.546413 0.000000
v -2.000000 2.546413 -40.000000
v -15.580930 2.686922 -4.938520
v -27.474936 2.686922 -4.938520
v -27.567297 2.686922 -22.385147
v -15.335264 2.686922 -22.187626
vt 0.360818 0.559629
vt 0.666618 0.554691
vt 1.000000 1.000000
vt 0.363127 0.123463
vt 1.000000 0.000000
vt 0.660477 0.123463
vt 1.000000 0.000000
vt 0.000000 0.000000
vt 0.000000 0.000000
vt 0.000000 1.000000
vn 0.0000 1.0000 0.0000
vn 0.0000 0.0000 1.0000
usemtl Material.024
s off
f 11/1/1 12/2/1 4/3/1
f 10/4/1 2/5/1 9/6/1
f 7/7/2 1/8/2 6/9/2
f 9/6/1 2/5/1 12/2/1
f 2/5/1 4/3/1 12/2/1
f 3/10/1 1/8/1 11/1/1
f 1/8/1 10/4/1 11/1/1
f 3/10/1 11/1/1 4/3/1
f 10/4/1 1/8/1 2/5/1
f 7/7/2 2/5/2 1/8/2
l 4 8
l 5 3
