# Blender v2.90.1 OBJ File: ''
# www.blender.org
mtllib paper2obj.mtl
v -1.286662 0.005182 1.874975
v 1.274638 0.008104 2.013119
v -1.210075 0.810737 -1.814725
v 1.219328 0.802283 -1.905566
v -0.028933 -0.016536 1.896666
v -0.034493 0.836551 -1.830341
v -0.672416 0.799228 -1.866004
v -0.681600 0.009464 1.901926
v 0.700672 0.020223 1.958929
v 0.689023 0.807703 -1.897376
v -1.280371 0.021351 0.112094
v 1.294928 0.026136 -0.009210
v -0.009634 0.014226 -0.011267
v -0.660666 0.017139 0.014819
v 0.629004 0.005615 -0.027868
v 1.270804 0.393605 -0.982594
v 0.008303 0.400826 -0.987648
v -0.651921 0.428718 -1.014436
v 0.642338 0.421697 -1.072065
v -1.300275 0.410028 -0.994506
v -1.260334 0.008097 0.963826
v 1.211993 -0.032955 0.968511
v 0.001856 0.011725 0.956265
v -0.639890 -0.015069 0.984730
v 0.702768 0.002152 1.047457
v 1.256085 0.024693 0.494529
v -0.001292 0.002003 0.490001
v -0.691612 0.021978 0.524192
v 0.653863 0.021815 0.489231
v -1.272995 -0.003807 0.550305
v -1.277108 0.220853 -0.527121
v 1.258754 0.211081 -0.468875
v 0.036264 0.171050 -0.550588
v -0.639240 0.225725 -0.552156
v 0.644901 0.196627 -0.495761
v 1.278474 0.640078 -1.502158
v 0.023287 0.625529 -1.465414
v -0.676561 0.615339 -1.455777
v 0.690653 0.612166 -1.473333
v -1.268079 0.602704 -1.466256
v -1.260878 0.023588 1.423696
v 1.283508 -0.004357 1.521311
v 0.023727 -0.045487 1.541713
v -0.622290 0.008480 1.444442
v 0.709825 -0.000048 1.552656
v -0.981818 0.814537 -1.851939
v -1.035865 -0.000425 1.883870
v -1.023130 0.031701 0.030691
v -1.002968 0.431407 -1.004923
v -0.948823 0.005926 0.975975
v -0.985113 0.013924 0.547500
v -0.997250 0.241587 -0.546619
v -0.990339 0.588343 -1.421148
v -0.982200 -0.002719 1.443154
v -0.329018 -0.006301 1.873359
v -0.354118 0.847700 -1.806468
v -0.313630 0.006757 0.022558
v -0.355793 0.413409 -1.018064
v -0.329265 -0.001796 0.976646
v -0.347668 -0.024243 0.517127
v -0.307991 0.189182 -0.445700
v -0.299488 0.656355 -1.501976
v -0.266454 -0.012849 1.462473
v 0.345502 0.787268 -1.863569
v 0.367776 0.012874 1.951726
v 0.293866 0.003029 -0.034924
v 0.322286 0.416293 -1.016883
v 0.371189 0.006739 0.947958
v 0.338620 0.023506 0.462819
v 0.365595 0.196134 -0.556136
v 0.357549 0.607649 -1.477703
v 0.348904 -0.038710 1.547440
v 1.029143 0.013150 1.942807
v 0.996682 0.818146 -1.874347
v 0.982377 0.023385 -0.007588
v 0.985277 0.417032 -1.082726
v 0.969414 -0.001894 0.996140
v 0.978313 0.043652 0.459463
v 0.967105 0.216532 -0.467783
v 1.006538 0.633585 -1.513517
v 1.020919 -0.008219 1.556655
v -1.267138 0.100336 -0.235256
v 1.287396 0.114089 -0.289590
v 0.024871 0.100632 -0.241554
v -0.668050 0.090606 -0.225748
v 0.615166 0.108062 -0.223492
v -1.009890 0.098120 -0.278677
v -0.293735 0.102764 -0.162040
v 0.328550 0.111393 -0.247785
v 1.011516 0.118274 -0.276356
v 1.257187 0.311745 -0.725138
v 0.017748 0.291383 -0.820226
v -0.648350 0.321732 -0.772699
v 0.635857 0.308904 -0.760258
v -1.283459 0.314883 -0.773740
v -0.999425 0.328783 -0.760264
v -0.333921 0.304134 -0.721902
v 0.324853 0.303290 -0.782044
v 0.973117 0.334518 -0.753860
v -1.284549 0.476386 -1.254560
v 1.262942 0.531933 -1.198476
v 0.034024 0.538975 -1.198543
v -0.683087 0.520083 -1.246071
v 0.690162 0.519433 -1.264545
v -1.009564 0.503414 -1.245183
v -0.322748 0.526283 -1.295790
v 0.345129 0.545762 -1.227772
v 1.002074 0.527331 -1.272854
v 1.266848 0.721857 -1.729753
v -0.025665 0.714774 -1.638594
v -0.645993 0.702880 -1.665106
v 0.713073 0.731681 -1.709240
v -1.279367 0.721279 -1.671850
v -0.998517 0.698455 -1.646564
v -0.314740 0.746518 -1.644477
v 0.358277 0.699644 -1.648709
v 1.018598 0.731004 -1.712154
v -1.269308 -0.006858 0.744553
v 1.227764 -0.001227 0.757263
v 0.008395 0.009129 0.738305
v -0.676021 0.002913 0.731700
v 0.676696 0.008885 0.780450
v -0.984927 0.002829 0.752301
v -0.339367 -0.005894 0.738913
v 0.367482 0.036761 0.723217
v 0.985320 0.022430 0.741108
v 1.282478 0.016592 0.246377
v -0.020084 0.000822 0.229909
v -0.637870 0.003474 0.197926
v 0.646856 -0.008746 0.254634
v -1.271698 -0.002846 0.329463
v -1.002252 0.009073 0.242348
v -0.309832 -0.031082 0.205818
v 0.283367 -0.012680 0.241913
v 0.986600 0.013085 0.240187
v 1.268590 -0.008290 1.225219
v 0.017051 -0.005100 1.211496
v -0.642951 -0.020067 1.198688
v 0.684559 0.004590 1.257018
v -1.303672 0.001689 1.215985
v -0.992939 -0.021713 1.210241
v -0.305152 -0.009022 1.207090
v 0.343554 -0.013845 1.219778
v 0.997223 0.001485 1.256107
v -1.288365 0.012406 1.673598
v 1.286323 0.002882 1.818932
v -0.023717 -0.014607 1.801030
v -0.648033 0.034661 1.756249
v 0.685870 -0.017716 1.776197
v -1.028068 0.005521 1.699305
v -0.284029 0.012159 1.709449
v 0.333946 -0.013746 1.781964
v 1.012413 -0.010271 1.765121
vt 0.875000 0.937500
vt 1.000000 0.937500
vt 1.000000 1.000000
vt 0.875000 1.000000
vt 0.375000 0.937500
vt 0.500000 0.937500
vt 0.500000 1.000000
vt 0.375000 1.000000
vt 0.125000 0.937500
vt 0.250000 0.937500
vt 0.250000 1.000000
vt 0.125000 1.000000
vt 0.625000 0.937500
vt 0.750000 0.937500
vt 0.750000 1.000000
vt 0.625000 1.000000
vt 0.625000 0.437500
vt 0.750000 0.437500
vt 0.750000 0.500000
vt 0.625000 0.500000
vt 0.125000 0.437500
vt 0.250000 0.437500
vt 0.250000 0.500000
vt 0.125000 0.500000
vt 0.375000 0.437500
vt 0.500000 0.437500
vt 0.500000 0.500000
vt 0.375000 0.500000
vt 0.875000 0.437500
vt 1.000000 0.437500
vt 1.000000 0.500000
vt 0.875000 0.500000
vt 0.625000 0.687500
vt 0.750000 0.687500
vt 0.750000 0.750000
vt 0.625000 0.750000
vt 0.125000 0.687500
vt 0.250000 0.687500
vt 0.250000 0.750000
vt 0.125000 0.750000
vt 0.375000 0.687500
vt 0.500000 0.687500
vt 0.500000 0.750000
vt 0.375000 0.750000
vt 0.875000 0.687500
vt 1.000000 0.687500
vt 1.000000 0.750000
vt 0.875000 0.750000
vt 0.875000 0.187500
vt 1.000000 0.187500
vt 1.000000 0.250000
vt 0.875000 0.250000
vt 0.375000 0.187500
vt 0.500000 0.187500
vt 0.500000 0.250000
vt 0.375000 0.250000
vt 0.125000 0.187500
vt 0.250000 0.187500
vt 0.250000 0.250000
vt 0.125000 0.250000
vt 0.625000 0.187500
vt 0.750000 0.187500
vt 0.750000 0.250000
vt 0.625000 0.250000
vt 0.875000 0.312500
vt 1.000000 0.312500
vt 1.000000 0.375000
vt 0.875000 0.375000
vt 0.375000 0.312500
vt 0.500000 0.312500
vt 0.500000 0.375000
vt 0.375000 0.375000
vt 0.125000 0.312500
vt 0.250000 0.312500
vt 0.250000 0.375000
vt 0.125000 0.375000
vt 0.625000 0.312500
vt 0.750000 0.312500
vt 0.750000 0.375000
vt 0.625000 0.375000
vt 0.875000 0.562500
vt 1.000000 0.562500
vt 1.000000 0.625000
vt 0.875000 0.625000
vt 0.375000 0.562500
vt 0.500000 0.562500
vt 0.500000 0.625000
vt 0.375000 0.625000
vt 0.125000 0.562500
vt 0.250000 0.562500
vt 0.250000 0.625000
vt 0.125000 0.625000
vt 0.625000 0.562500
vt 0.750000 0.562500
vt 0.750000 0.625000
vt 0.625000 0.625000
vt 0.625000 0.812500
vt 0.750000 0.812500
vt 0.750000 0.875000
vt 0.625000 0.875000
vt 0.125000 0.812500
vt 0.250000 0.812500
vt 0.250000 0.875000
vt 0.125000 0.875000
vt 0.375000 0.812500
vt 0.500000 0.812500
vt 0.500000 0.875000
vt 0.375000 0.875000
vt 0.875000 0.812500
vt 1.000000 0.812500
vt 1.000000 0.875000
vt 0.875000 0.875000
vt 0.625000 0.062500
vt 0.750000 0.062500
vt 0.750000 0.125000
vt 0.625000 0.125000
vt 0.125000 0.062500
vt 0.250000 0.062500
vt 0.250000 0.125000
vt 0.125000 0.125000
vt 0.375000 0.062500
vt 0.500000 0.062500
vt 0.500000 0.125000
vt 0.375000 0.125000
vt 0.875000 0.062500
vt 1.000000 0.062500
vt 1.000000 0.125000
vt 0.875000 0.125000
vt 0.000000 0.062500
vt 0.000000 0.125000
vt 0.000000 0.812500
vt 0.000000 0.875000
vt 0.000000 0.562500
vt 0.000000 0.625000
vt 0.000000 0.312500
vt 0.000000 0.375000
vt 0.000000 0.187500
vt 0.000000 0.250000
vt 0.000000 0.687500
vt 0.000000 0.750000
vt 0.000000 0.437500
vt 0.000000 0.500000
vt 0.000000 0.937500
vt 0.000000 1.000000
vt 0.750000 0.000000
vt 0.875000 0.000000
vt 0.500000 0.000000
vt 0.625000 0.000000
vt 0.250000 0.000000
vt 0.375000 0.000000
vt 0.000000 0.000000
vt 0.125000 0.000000
vt 1.000000 0.000000
vn 0.0920 0.8995 0.4270
vn 0.0753 0.8482 0.5243
vn 0.0373 0.8859 0.4623
vn -0.0185 0.9258 0.3776
vn -0.0108 0.9985 0.0538
vn 0.0349 0.9955 0.0877
vn -0.0638 0.9909 0.1186
vn -0.0106 0.9992 0.0392
vn 0.0041 0.9242 0.3818
vn 0.0251 0.9182 0.3953
vn 0.0720 0.9039 0.4216
vn 0.0169 0.9625 0.2706
vn 0.0716 0.9953 -0.0657
vn -0.0254 0.9984 0.0515
vn 0.0296 0.9967 0.0757
vn -0.0277 0.9990 0.0350
vn 0.0726 0.9934 0.0889
vn -0.0613 0.9968 -0.0517
vn -0.0081 0.9973 0.0733
vn 0.0480 0.9988 -0.0051
vn 0.0267 0.8866 0.4617
vn 0.1001 0.9620 0.2541
vn 0.0015 0.9054 0.4245
vn -0.0374 0.9587 0.2819
vn 0.0457 0.9462 0.3202
vn -0.0385 0.9063 0.4209
vn -0.0574 0.9083 0.4144
vn -0.0777 0.9286 0.3629
vn -0.0486 0.9986 -0.0200
vn -0.0491 0.9966 -0.0666
vn 0.1349 0.9866 -0.0916
vn -0.0313 0.9995 -0.0106
vn 0.0602 0.9981 0.0145
vn -0.0667 0.8787 0.4727
vn 0.0188 0.9043 0.4265
vn -0.0481 0.9982 0.0359
vn 0.0402 0.9962 0.0769
vn -0.0578 0.9179 0.3926
vn -0.0072 0.9940 0.1090
vn 0.0441 0.8556 0.5158
vn 0.0571 0.9946 -0.0867
vn 0.0057 0.8791 0.4767
vn -0.0495 0.9392 0.3399
vn 0.0806 0.9967 -0.0028
vn -0.0375 0.9989 0.0292
vn 0.0213 0.9280 0.3721
vn 0.0627 0.9889 0.1345
vn -0.1816 0.8495 0.4953
vn -0.0133 0.9934 -0.1140
vn 0.0343 0.9605 0.2760
vn -0.0504 0.9695 0.2397
vn -0.0722 0.9968 -0.0345
vn 0.0197 0.9973 0.0712
vn -0.0455 0.8736 0.4845
vn 0.0417 0.9975 0.0577
vn 0.1004 0.8867 0.4513
vn 0.0016 0.9990 0.0457
vn -0.0114 0.9144 0.4047
vn -0.0259 0.9270 0.3743
vn -0.0489 0.9969 0.0620
vn 0.0112 0.9999 -0.0126
vn -0.0276 0.9564 0.2908
vn -0.0574 0.9972 0.0488
vn -0.0284 0.9047 0.4251
vn -0.0174 0.9204 0.3905
vn 0.0206 0.9141 0.4050
vn -0.0388 0.9286 0.3690
vn 0.0373 0.9754 0.2175
vn -0.0220 0.8889 0.4576
vn 0.0174 0.9689 0.2467
vn 0.0666 0.9101 0.4089
vn 0.0103 0.9486 0.3163
vn -0.0835 0.9192 0.3849
vn -0.0742 0.9029 0.4234
vn -0.0183 0.9198 0.3919
vn -0.0531 0.9288 0.3667
vn 0.0275 0.9270 0.3740
vn 0.1517 0.9121 0.3808
vn 0.0396 0.9210 0.3876
vn -0.0669 0.9082 0.4132
vn 0.0095 0.8778 0.4789
vn 0.0202 0.8431 0.5373
vn 0.0431 0.9272 0.3720
vn -0.0808 0.9610 0.2643
vn -0.1354 0.8463 0.5153
vn -0.0795 0.8905 0.4479
vn -0.0145 0.9445 0.3282
vn 0.0964 0.8599 0.5012
vn 0.0011 0.8947 0.4467
vn 0.0551 0.8866 0.4592
vn -0.0903 0.8905 0.4459
vn -0.0003 0.8834 0.4687
vn -0.0095 0.8875 0.4608
vn -0.0099 0.9105 0.4134
vn 0.0556 0.8729 0.4848
vn 0.0094 0.9218 0.3876
vn -0.0071 0.9982 0.0595
vn -0.0290 0.9977 0.0616
vn -0.0069 0.9996 0.0289
vn -0.0113 0.9992 -0.0396
vn 0.0328 0.9968 0.0725
vn 0.0343 0.9991 0.0260
vn -0.0424 0.9990 -0.0143
vn 0.1142 0.9854 0.1262
vn -0.0739 0.9883 -0.1333
vn -0.0142 0.9971 -0.0753
vn 0.1193 0.9926 -0.0223
vn -0.0541 0.9985 -0.0058
vn 0.0326 0.9963 -0.0800
vn -0.0911 0.9957 -0.0170
vn -0.0076 0.9993 -0.0374
vn 0.0051 0.9893 -0.1457
vn 0.0180 0.9996 0.0226
vn 0.0009 0.9951 0.0987
vn 0.0168 0.9985 -0.0512
vn 0.0860 0.9910 -0.1024
vn -0.0840 0.9951 0.0512
vn -0.0194 0.9950 -0.0976
vn 0.0368 0.9967 0.0724
vn 0.0122 0.9999 0.0089
vn -0.0075 0.9859 -0.1672
vn -0.0357 0.9954 -0.0888
vn 0.0691 0.9853 0.1565
vn 0.0221 0.9992 0.0344
vn 0.0028 0.9970 -0.0768
vn 0.0478 0.9950 0.0874
vn -0.0616 0.9944 0.0861
vn -0.0045 0.9837 -0.1796
usemtl None
s off
f 117/1/1 109/2/1 4/3/1 74/4/1
f 115/5/2 110/6/2 6/7/2 56/8/2
f 114/9/3 111/10/3 7/11/3 46/12/3
f 116/13/4 112/14/4 10/15/4 64/16/4
f 134/17/5 130/18/5 15/19/5 66/20/5
f 132/21/6 129/22/6 14/23/6 48/24/6
f 133/25/7 128/26/7 13/27/7 57/28/7
f 135/29/8 127/30/8 12/31/8 75/32/8
f 98/33/9 94/34/9 19/35/9 67/36/9
f 96/37/10 93/38/10 18/39/10 49/40/10
f 97/41/11 92/42/11 17/43/11 58/44/11
f 99/45/12 91/46/12 16/47/12 76/48/12
f 144/49/13 136/50/13 22/51/13 77/52/13
f 142/53/14 137/54/14 23/55/14 59/56/14
f 141/57/15 138/58/15 24/59/15 50/60/15
f 143/61/16 139/62/16 25/63/16 68/64/16
f 126/65/17 119/66/17 26/67/17 78/68/17
f 124/69/18 120/70/18 27/71/18 60/72/18
f 123/73/19 121/74/19 28/75/19 51/76/19
f 125/77/20 122/78/20 29/79/20 69/80/20
f 90/81/21 83/82/21 32/83/21 79/84/21
f 88/85/22 84/86/22 33/87/22 61/88/22
f 87/89/23 85/90/23 34/91/23 52/92/23
f 89/93/24 86/94/24 35/95/24 70/96/24
f 107/97/25 104/98/25 39/99/25 71/100/25
f 105/101/26 103/102/26 38/103/26 53/104/26
f 106/105/27 102/106/27 37/107/27 62/108/27
f 108/109/28 101/110/28 36/111/28 80/112/28
f 152/113/29 149/114/29 45/115/29 72/116/29
f 150/117/30 148/118/30 44/119/30 54/120/30
f 151/121/31 147/122/31 43/123/31 63/124/31
f 153/125/32 146/126/32 42/127/32 81/128/32
f 145/129/33 150/117/33 54/120/33 41/130/33
f 100/131/34 105/101/34 53/104/34 40/132/34
f 82/133/35 87/89/35 52/92/35 31/134/35
f 118/135/36 123/73/36 51/76/36 30/136/36
f 140/137/37 141/57/37 50/60/37 21/138/37
f 95/139/38 96/37/38 49/40/38 20/140/38
f 131/141/39 132/21/39 48/24/39 11/142/39
f 113/143/40 114/9/40 46/12/40 3/144/40
f 148/118/41 151/121/41 63/124/41 44/119/41
f 103/102/42 106/105/42 62/108/42 38/103/42
f 85/90/43 88/85/43 61/88/43 34/91/43
f 121/74/44 124/69/44 60/72/44 28/75/44
f 138/58/45 142/53/45 59/56/45 24/59/45
f 93/38/46 97/41/46 58/44/46 18/39/46
f 129/22/47 133/25/47 57/28/47 14/23/47
f 111/10/48 115/5/48 56/8/48 7/11/48
f 147/122/49 152/113/49 72/116/49 43/123/49
f 102/106/50 107/97/50 71/100/50 37/107/50
f 84/86/51 89/93/51 70/96/51 33/87/51
f 120/70/52 125/77/52 69/80/52 27/71/52
f 137/54/53 143/61/53 68/64/53 23/55/53
f 92/42/54 98/33/54 67/36/54 17/43/54
f 128/26/55 134/17/55 66/20/55 13/27/55
f 110/6/56 116/13/56 64/16/56 6/7/56
f 149/114/57 153/125/57 81/128/57 45/115/57
f 104/98/58 108/109/58 80/112/58 39/99/58
f 86/94/59 90/81/59 79/84/59 35/95/59
f 122/78/60 126/65/60 78/68/60 29/79/60
f 139/62/61 144/49/61 77/52/61 25/63/61
f 94/34/62 99/45/62 76/48/62 19/35/62
f 130/18/63 135/29/63 75/32/63 15/19/63
f 112/14/64 117/1/64 74/4/64 10/15/64
f 15/19/65 75/32/65 90/81/65 86/94/65
f 13/27/66 66/20/66 89/93/66 84/86/66
f 14/23/67 57/28/67 88/85/67 85/90/67
f 11/142/68 48/24/68 87/89/68 82/133/68
f 66/20/69 15/19/69 86/94/69 89/93/69
f 48/24/70 14/23/70 85/90/70 87/89/70
f 57/28/71 13/27/71 84/86/71 88/85/71
f 75/32/72 12/31/72 83/82/72 90/81/72
f 35/95/73 79/84/73 99/45/73 94/34/73
f 33/87/74 70/96/74 98/33/74 92/42/74
f 34/91/75 61/88/75 97/41/75 93/38/75
f 31/134/76 52/92/76 96/37/76 95/139/76
f 79/84/77 32/83/77 91/46/77 99/45/77
f 61/88/78 33/87/78 92/42/78 97/41/78
f 52/92/79 34/91/79 93/38/79 96/37/79
f 70/96/80 35/95/80 94/34/80 98/33/80
f 19/35/81 76/48/81 108/109/81 104/98/81
f 17/43/82 67/36/82 107/97/82 102/106/82
f 18/39/83 58/44/83 106/105/83 103/102/83
f 20/140/84 49/40/84 105/101/84 100/131/84
f 76/48/85 16/47/85 101/110/85 108/109/85
f 58/44/86 17/43/86 102/106/86 106/105/86
f 49/40/87 18/39/87 103/102/87 105/101/87
f 67/36/88 19/35/88 104/98/88 107/97/88
f 39/99/89 80/112/89 117/1/89 112/14/89
f 37/107/90 71/100/90 116/13/90 110/6/90
f 38/103/91 62/108/91 115/5/91 111/10/91
f 40/132/92 53/104/92 114/9/92 113/143/92
f 71/100/93 39/99/93 112/14/93 116/13/93
f 53/104/94 38/103/94 111/10/94 114/9/94
f 62/108/95 37/107/95 110/6/95 115/5/95
f 80/112/96 36/111/96 109/2/96 117/1/96
f 25/63/97 77/52/97 126/65/97 122/78/97
f 23/55/98 68/64/98 125/77/98 120/70/98
f 24/59/99 59/56/99 124/69/99 121/74/99
f 21/138/100 50/60/100 123/73/100 118/135/100
f 68/64/101 25/63/101 122/78/101 125/77/101
f 50/60/102 24/59/102 121/74/102 123/73/102
f 59/56/103 23/55/103 120/70/103 124/69/103
f 77/52/104 22/51/104 119/66/104 126/65/104
f 29/79/105 78/68/105 135/29/105 130/18/105
f 27/71/106 69/80/106 134/17/106 128/26/106
f 28/75/107 60/72/107 133/25/107 129/22/107
f 30/136/108 51/76/108 132/21/108 131/141/108
f 78/68/109 26/67/109 127/30/109 135/29/109
f 60/72/110 27/71/110 128/26/110 133/25/110
f 51/76/111 28/75/111 129/22/111 132/21/111
f 69/80/112 29/79/112 130/18/112 134/17/112
f 45/115/113 81/128/113 144/49/113 139/62/113
f 43/123/114 72/116/114 143/61/114 137/54/114
f 44/119/115 63/124/115 142/53/115 138/58/115
f 41/130/116 54/120/116 141/57/116 140/137/116
f 72/116/117 45/115/117 139/62/117 143/61/117
f 54/120/118 44/119/118 138/58/118 141/57/118
f 63/124/119 43/123/119 137/54/119 142/53/119
f 81/128/120 42/127/120 136/50/120 144/49/120
f 9/145/121 73/146/121 153/125/121 149/114/121
f 5/147/122 65/148/122 152/113/122 147/122/122
f 8/149/123 55/150/123 151/121/123 148/118/123
f 1/151/124 47/152/124 150/117/124 145/129/124
f 73/146/125 2/153/125 146/126/125 153/125/125
f 55/150/126 5/147/126 147/122/126 151/121/126
f 47/152/127 8/149/127 148/118/127 150/117/127
f 65/148/128 9/145/128 149/114/128 152/113/128
