# Blender v2.90.1 OBJ File: ''
# www.blender.org
mtllib paper1obj.mtl
v 3.471388 -0.000692 1.894718
v 5.957374 0.010030 1.999551
v 3.488888 -0.007916 -1.858896
v 5.925013 -0.016864 -1.955177
v 4.683476 -0.015695 1.906745
v 4.654139 0.031949 -1.888669
v 3.413253 -0.034160 -0.004424
v 5.950247 0.008245 0.003407
v 4.685034 0.029995 0.019317
v 5.965888 -0.002888 -1.009735
v 4.711724 -0.003546 -0.889457
v 3.423640 -0.014770 -0.997560
v 5.964228 -0.004119 -1.450183
v 4.709450 -0.009291 -1.416057
v 3.426529 -0.023888 -1.527495
v 5.957424 -0.034310 -1.694400
v 4.689415 -0.016014 -1.641890
v 3.455925 -0.005727 -1.712769
v 5.365137 0.017504 1.887812
v 5.337841 0.012743 -1.901546
v 5.376721 0.009836 -0.036991
v 5.327369 -0.035774 -1.028784
v 5.356593 0.008612 -1.468119
v 5.362526 -0.011976 -1.705667
v 4.079872 0.004300 -1.849418
v 4.036013 0.011099 1.982886
v 4.022987 -0.001833 -0.006486
v 4.011556 0.027817 -0.979364
v 4.040754 0.003195 -1.477963
v 4.067101 -0.008263 -1.679602
v 3.428161 -0.007981 0.992187
v 5.927150 -0.003119 1.007378
v 4.730358 -0.025740 0.976978
v 5.385457 0.014095 0.948475
v 4.027024 0.003824 1.007990
v 3.440965 0.008302 1.450396
v 5.952166 -0.002637 1.488960
v 4.668003 -0.023925 1.517620
v 5.351881 -0.014335 1.534078
v 4.047161 0.012606 1.508653
v 3.451985 0.033408 1.654860
v 5.975361 -0.001234 1.775168
v 4.687669 -0.048083 1.760034
v 5.379276 0.005819 1.707217
v 4.066389 0.017427 1.762575
v 5.989307 0.024363 0.501920
v 4.668880 -0.003284 0.459220
v 5.338663 0.019533 0.502283
v 4.025086 0.011770 0.490277
v 3.477059 0.014581 0.491851
v 3.423209 0.008832 -0.438887
v 5.943314 0.037252 -0.494969
v 4.717148 -0.033020 -0.430219
v 5.413797 -0.000925 -0.459376
v 4.021749 -0.004292 -0.587421
v 4.350924 0.014519 1.973790
v 4.364421 0.005946 -1.864426
v 4.325401 0.009922 -0.018387
v 4.343221 -0.003831 -0.948260
v 4.345609 -0.025375 -1.430528
v 4.363440 -0.027922 -1.642323
v 4.398265 0.018033 0.941468
v 4.387393 -0.017239 1.468604
v 4.403965 -0.029914 1.750572
v 4.388092 0.006690 0.502131
v 4.333458 -0.019634 -0.526097
v 3.730354 -0.009764 -1.916184
v 3.713051 -0.021523 -0.061912
v 3.697396 0.018013 -1.011472
v 3.726892 -0.007671 -1.557766
v 3.740068 -0.017508 -1.767521
v 3.689751 -0.026541 1.980773
v 3.730878 -0.000234 0.959878
v 3.708530 0.012121 1.498203
v 3.694748 0.017481 1.748177
v 3.709769 -0.003075 0.408500
v 3.667303 0.003601 -0.495060
v 4.986390 0.047268 -1.936732
v 5.002234 0.019331 0.031717
v 5.022903 0.001597 -0.981757
v 5.033986 -0.003557 -1.398129
v 5.030838 -0.000160 -1.694530
v 5.043360 0.010986 1.882660
v 5.046194 -0.003183 0.964692
v 4.977331 -0.018576 1.528575
v 4.994245 -0.001301 1.758010
v 5.003868 -0.016726 0.462078
v 5.093828 0.003374 -0.390503
v 5.694021 0.010250 1.992214
v 5.691550 0.002319 -1.961341
v 5.688554 0.008070 -0.002490
v 5.695964 -0.015925 -1.076779
v 5.687448 0.005401 -1.494130
v 5.687909 -0.016860 -1.720287
v 5.696543 0.002887 0.960532
v 5.692441 -0.001202 1.532021
v 5.706237 -0.000886 1.789747
v 5.674391 0.006955 0.530455
v 5.691518 0.031213 -0.469961
v 3.421167 -0.054312 -1.270692
v 5.951052 0.016087 -1.185960
v 4.725870 0.024028 -1.156980
v 5.331043 0.005057 -1.216416
v 4.048395 -0.002651 -1.258503
v 4.358319 -0.006831 -1.221197
v 3.716495 -0.021017 -1.306273
v 5.022614 0.030584 -1.174279
v 5.686379 0.005814 -1.237759
v 5.964100 -0.000240 -0.751717
v 4.678200 -0.037951 -0.654523
v 5.399079 -0.027008 -0.711996
v 4.058754 0.010809 -0.765110
v 3.419940 0.007670 -0.709624
v 4.338588 -0.030894 -0.712388
v 3.702536 0.015018 -0.719427
v 5.049578 -0.020396 -0.657875
v 5.707129 -0.004470 -0.753871
v 3.406408 -0.012631 -0.222304
v 5.931095 0.018968 -0.229994
v 4.711707 0.003651 -0.226397
v 5.378532 0.014938 -0.266140
v 4.018725 -0.010030 -0.243611
v 4.344112 -0.005946 -0.249810
v 3.683514 -0.004828 -0.253106
v 5.057198 0.040802 -0.222207
v 5.687048 0.022494 -0.233693
v 5.979792 0.023056 0.243507
v 4.655144 0.013473 0.230434
v 5.383164 0.007907 0.203545
v 4.021595 -0.008793 0.243922
v 3.481987 -0.013666 0.287981
v 4.332227 0.003882 0.225258
v 3.730123 -0.032200 0.195531
v 4.984232 -0.015548 0.245488
v 5.693326 0.002721 0.241862
v 3.441173 0.004435 0.734663
v 5.977000 0.008962 0.738960
v 4.695679 -0.025555 0.708880
v 5.358690 0.007723 0.731196
v 3.983778 -0.008526 0.756420
v 4.365664 -0.012839 0.715800
v 3.704625 -0.004753 0.707547
v 5.031929 -0.010561 0.720909
v 5.692404 0.003894 0.744276
v 5.901854 0.000150 1.232696
v 4.690021 -0.010191 1.292319
v 5.334263 -0.002514 1.314309
v 4.034302 0.029764 1.281115
v 3.442843 -0.024019 1.248967
v 4.363339 0.013565 1.226604
v 3.750590 0.009740 1.231837
v 5.009999 -0.003344 1.283644
v 5.670841 0.000833 1.251869
vt 0.875000 0.937500
vt 1.000000 0.937500
vt 1.000000 1.000000
vt 0.875000 1.000000
vt 0.375000 0.937500
vt 0.500000 0.937500
vt 0.500000 1.000000
vt 0.375000 1.000000
vt 0.375000 0.437500
vt 0.500000 0.437500
vt 0.500000 0.500000
vt 0.375000 0.500000
vt 0.875000 0.437500
vt 1.000000 0.437500
vt 1.000000 0.500000
vt 0.875000 0.500000
vt 0.375000 0.687500
vt 0.500000 0.687500
vt 0.500000 0.750000
vt 0.375000 0.750000
vt 0.875000 0.687500
vt 1.000000 0.687500
vt 1.000000 0.750000
vt 0.875000 0.750000
vt 0.375000 0.812500
vt 0.500000 0.812500
vt 0.500000 0.875000
vt 0.375000 0.875000
vt 0.875000 0.812500
vt 1.000000 0.812500
vt 1.000000 0.875000
vt 0.875000 0.875000
vt 0.625000 0.875000
vt 0.750000 0.875000
vt 0.750000 0.937500
vt 0.625000 0.937500
vt 0.625000 0.812500
vt 0.750000 0.812500
vt 0.625000 0.687500
vt 0.750000 0.687500
vt 0.750000 0.750000
vt 0.625000 0.750000
vt 0.625000 0.437500
vt 0.750000 0.437500
vt 0.750000 0.500000
vt 0.625000 0.500000
vt 0.750000 1.000000
vt 0.625000 1.000000
vt 0.125000 0.875000
vt 0.250000 0.875000
vt 0.250000 0.937500
vt 0.125000 0.937500
vt 0.125000 0.812500
vt 0.250000 0.812500
vt 0.125000 0.687500
vt 0.250000 0.687500
vt 0.250000 0.750000
vt 0.125000 0.750000
vt 0.125000 0.437500
vt 0.250000 0.437500
vt 0.250000 0.500000
vt 0.125000 0.500000
vt 0.250000 1.000000
vt 0.125000 1.000000
vt 0.125000 0.187500
vt 0.250000 0.187500
vt 0.250000 0.250000
vt 0.125000 0.250000
vt 0.625000 0.187500
vt 0.750000 0.187500
vt 0.750000 0.250000
vt 0.625000 0.250000
vt 0.875000 0.187500
vt 1.000000 0.187500
vt 1.000000 0.250000
vt 0.875000 0.250000
vt 0.375000 0.187500
vt 0.500000 0.187500
vt 0.500000 0.250000
vt 0.375000 0.250000
vt 0.375000 0.062500
vt 0.500000 0.062500
vt 0.500000 0.125000
vt 0.375000 0.125000
vt 0.875000 0.062500
vt 1.000000 0.062500
vt 1.000000 0.125000
vt 0.875000 0.125000
vt 0.625000 0.062500
vt 0.750000 0.062500
vt 0.750000 0.125000
vt 0.625000 0.125000
vt 0.125000 0.062500
vt 0.250000 0.062500
vt 0.250000 0.125000
vt 0.125000 0.125000
vt 0.125000 0.000000
vt 0.250000 0.000000
vt 0.625000 0.000000
vt 0.750000 0.000000
vt 0.875000 0.000000
vt 1.000000 0.000000
vt 0.375000 0.000000
vt 0.500000 0.000000
vt 0.125000 0.312500
vt 0.250000 0.312500
vt 0.250000 0.375000
vt 0.125000 0.375000
vt 0.625000 0.312500
vt 0.750000 0.312500
vt 0.750000 0.375000
vt 0.625000 0.375000
vt 0.875000 0.312500
vt 1.000000 0.312500
vt 1.000000 0.375000
vt 0.875000 0.375000
vt 0.375000 0.312500
vt 0.500000 0.312500
vt 0.500000 0.375000
vt 0.375000 0.375000
vt 0.125000 0.562500
vt 0.250000 0.562500
vt 0.250000 0.625000
vt 0.125000 0.625000
vt 0.625000 0.562500
vt 0.750000 0.562500
vt 0.750000 0.625000
vt 0.625000 0.625000
vt 0.875000 0.562500
vt 1.000000 0.562500
vt 1.000000 0.625000
vt 0.875000 0.625000
vt 0.375000 0.562500
vt 0.500000 0.562500
vt 0.500000 0.625000
vt 0.375000 0.625000
vt 0.000000 0.562500
vt 0.000000 0.625000
vt 0.000000 0.312500
vt 0.000000 0.375000
vt 0.000000 0.000000
vt 0.000000 0.062500
vt 0.000000 0.125000
vt 0.000000 0.187500
vt 0.000000 0.250000
vt 0.000000 0.937500
vt 0.000000 1.000000
vt 0.000000 0.437500
vt 0.000000 0.500000
vt 0.000000 0.687500
vt 0.000000 0.750000
vt 0.000000 0.812500
vt 0.000000 0.875000
vn 0.0681 0.9953 0.0687
vn -0.0537 0.9830 0.1755
vn -0.0463 0.9978 0.0472
vn -0.0372 0.9992 -0.0169
vn -0.0117 0.9916 0.1285
vn -0.0296 0.9993 -0.0238
vn -0.0522 0.9929 -0.1067
vn 0.0056 0.9992 -0.0394
vn -0.0401 0.9990 -0.0210
vn 0.0632 0.9918 -0.1114
vn -0.0045 0.9995 -0.0322
vn 0.0099 0.9979 -0.0634
vn 0.0686 0.9976 0.0101
vn -0.0065 0.9967 0.0806
vn 0.0615 0.9864 0.1527
vn -0.0174 0.9984 -0.0534
vn -0.0531 0.9978 0.0403
vn -0.0075 0.9992 0.0403
vn -0.0778 0.9963 0.0370
vn -0.0488 0.9968 0.0631
vn -0.0306 0.9975 -0.0642
vn -0.0277 0.9994 0.0209
vn 0.0145 0.9999 -0.0009
vn 0.1028 0.9947 -0.0055
vn 0.0369 0.9970 0.0675
vn 0.0030 1.0000 -0.0034
vn -0.0203 0.9957 -0.0903
vn 0.0001 0.9998 -0.0202
vn -0.0544 0.9929 0.1061
vn -0.0241 0.9969 -0.0755
vn 0.0004 0.9986 -0.0524
vn 0.0587 0.9792 -0.1943
vn -0.0267 0.9990 0.0366
vn -0.0837 0.9963 0.0198
vn -0.0351 0.9985 0.0413
vn 0.0443 0.9950 0.0894
vn 0.0218 0.9995 0.0237
vn 0.0216 0.9897 -0.1416
vn -0.0028 0.9986 0.0537
vn 0.0216 0.9943 -0.1045
vn 0.0188 0.9997 -0.0130
vn 0.0158 0.9963 0.0848
vn 0.0646 0.9952 -0.0733
vn 0.1137 0.9935 0.0070
vn -0.0038 0.9992 -0.0386
vn 0.0834 0.9962 -0.0248
vn 0.0576 0.9978 -0.0323
vn 0.1069 0.9905 0.0869
vn -0.0385 0.9989 0.0267
vn 0.0262 0.9926 0.1185
vn 0.0059 0.9979 0.0651
vn 0.0598 0.9979 0.0263
vn 0.0262 0.9864 0.1623
vn 0.0421 0.9969 -0.0666
vn -0.0666 0.9977 0.0158
vn 0.0304 0.9993 0.0212
vn 0.0056 0.9998 -0.0187
vn -0.0733 0.9968 -0.0332
vn -0.0734 0.9938 0.0833
vn -0.0046 0.9998 0.0206
vn -0.0869 0.9751 -0.2040
vn -0.0030 0.9995 0.0320
vn -0.1140 0.9831 -0.1430
vn -0.0846 0.9962 0.0211
vn -0.0472 0.9984 -0.0299
vn -0.0164 0.9809 0.1940
vn 0.0555 0.9905 0.1261
vn -0.0190 0.9948 0.1002
vn -0.0194 0.9902 -0.1381
vn -0.0327 0.9995 -0.0049
vn -0.0667 0.9975 -0.0228
vn 0.0225 0.9992 0.0316
vn 0.0374 0.9977 -0.0569
vn -0.0039 0.9989 -0.0471
vn 0.0145 0.9994 0.0301
vn 0.0066 0.9957 -0.0919
vn 0.0040 1.0000 0.0064
vn -0.0656 0.9976 -0.0230
vn 0.0094 0.9998 0.0148
vn 0.0332 0.9946 0.0983
vn -0.0111 0.9842 0.1768
vn 0.0029 0.9925 0.1221
vn -0.1262 0.9821 -0.1396
vn 0.0615 0.9966 -0.0546
vn -0.0281 0.9920 -0.1229
vn 0.1263 0.9755 0.1803
vn -0.0709 0.9897 0.1246
vn -0.0494 0.9979 0.0427
vn -0.1024 0.9882 -0.1139
vn -0.0696 0.9965 -0.0464
vn -0.0014 0.9998 0.0206
vn 0.0919 0.9955 0.0211
vn 0.0308 0.9970 0.0713
vn -0.0013 0.9954 -0.0953
vn -0.0261 0.9904 -0.1358
vn 0.0372 0.9984 -0.0424
vn -0.0139 0.9990 0.0424
vn -0.0395 0.9991 -0.0162
vn -0.0207 0.9953 0.0948
vn -0.0267 0.9983 -0.0521
vn -0.0329 0.9953 -0.0912
vn 0.0056 0.9985 0.0538
vn 0.0606 0.9962 0.0619
vn -0.0246 0.9995 0.0218
vn 0.0299 0.9993 -0.0238
vn 0.0628 0.9974 0.0355
vn 0.0253 0.9906 -0.1348
vn -0.0117 0.9990 -0.0433
vn -0.0393 0.9933 -0.1089
vn -0.0811 0.9964 -0.0241
vn -0.0631 0.9979 -0.0112
vn 0.0023 0.9996 0.0273
vn 0.0239 0.9996 -0.0141
vn -0.0575 0.9983 -0.0085
vn 0.0042 0.9999 0.0154
vn -0.0253 0.9960 -0.0862
vn 0.0879 0.9934 -0.0737
vn -0.0004 0.9996 0.0270
vn -0.0535 0.9983 -0.0250
vn 0.0053 0.9994 -0.0342
vn -0.0215 0.9993 0.0294
vn -0.0196 0.9981 0.0592
vn -0.0608 0.9950 -0.0795
vn 0.0817 0.9921 0.0949
vn 0.0320 0.9950 0.0947
vn 0.0054 1.0000 0.0083
vn -0.0102 0.9983 0.0578
vn -0.0356 0.9990 0.0278
usemtl None
s off
f 94/1/1 16/2/1 4/3/1 90/4/1
f 61/5/2 17/6/2 6/7/2 57/8/2
f 132/9/3 128/10/3 9/11/3 58/12/3
f 135/13/4 127/14/4 8/15/4 91/16/4
f 114/17/5 110/18/5 11/19/5 59/20/5
f 117/21/6 109/22/6 10/23/6 92/24/6
f 105/25/7 102/26/7 14/27/7 60/28/7
f 108/29/8 101/30/8 13/31/8 93/32/8
f 60/28/9 14/27/9 17/6/9 61/5/9
f 93/32/10 13/31/10 16/2/10 94/1/10
f 81/33/11 23/34/11 24/35/11 82/36/11
f 107/37/12 103/38/12 23/34/12 81/33/12
f 116/39/13 111/40/13 22/41/13 80/42/13
f 134/43/14 129/44/14 21/45/14 79/46/14
f 82/36/15 24/35/15 20/47/15 78/48/15
f 70/49/16 29/50/16 30/51/16 71/52/16
f 106/53/17 104/54/17 29/50/17 70/49/17
f 115/55/18 112/56/18 28/57/18 69/58/18
f 133/59/19 130/60/19 27/61/19 68/62/19
f 71/52/20 30/51/20 25/63/20 67/64/20
f 151/65/21 148/66/21 35/67/21 73/68/21
f 152/69/22 147/70/22 34/71/22 84/72/22
f 153/73/23 145/74/23 32/75/23 95/76/23
f 150/77/24 146/78/24 33/79/24 62/80/24
f 64/81/25 43/82/25 38/83/25 63/84/25
f 97/85/26 42/86/26 37/87/26 96/88/26
f 86/89/27 44/90/27 39/91/27 85/92/27
f 75/93/28 45/94/28 40/95/28 74/96/28
f 72/97/29 26/98/29 45/94/29 75/93/29
f 83/99/30 19/100/30 44/90/30 86/89/30
f 89/101/31 2/102/31 42/86/31 97/85/31
f 56/103/32 5/104/32 43/82/32 64/81/32
f 142/105/33 140/106/33 49/107/33 76/108/33
f 143/109/34 139/110/34 48/111/34 87/112/34
f 144/113/35 137/114/35 46/115/35 98/116/35
f 141/117/36 138/118/36 47/119/36 65/120/36
f 124/121/37 122/122/37 55/123/37 77/124/37
f 125/125/38 121/126/38 54/127/38 88/128/38
f 126/129/39 119/130/39 52/131/39 99/132/39
f 123/133/40 120/134/40 53/135/40 66/136/40
f 122/122/41 123/133/41 66/136/41 55/123/41
f 140/106/42 141/117/42 65/120/42 49/107/42
f 26/98/43 56/103/43 64/81/43 45/94/43
f 45/94/44 64/81/44 63/84/44 40/95/44
f 148/66/45 150/77/45 62/80/45 35/67/45
f 29/50/46 60/28/46 61/5/46 30/51/46
f 104/54/47 105/25/47 60/28/47 29/50/47
f 112/56/48 114/17/48 59/20/48 28/57/48
f 130/60/49 132/9/49 58/12/49 27/61/49
f 30/51/50 61/5/50 57/8/50 25/63/50
f 118/137/51 124/121/51 77/124/51 51/138/51
f 136/139/52 142/105/52 76/108/52 50/140/52
f 1/141/53 72/97/53 75/93/53 41/142/53
f 41/142/54 75/93/54 74/96/54 36/143/54
f 149/144/55 151/65/55 73/68/55 31/145/55
f 18/146/56 71/52/56 67/64/56 3/147/56
f 131/148/57 133/59/57 68/62/57 7/149/57
f 113/150/58 115/55/58 69/58/58 12/151/58
f 100/152/59 106/53/59 70/49/59 15/153/59
f 15/153/60 70/49/60 71/52/60 18/146/60
f 120/134/61 125/125/61 88/128/61 53/135/61
f 138/118/62 143/109/62 87/112/62 47/119/62
f 5/104/63 83/99/63 86/89/63 43/82/63
f 43/82/64 86/89/64 85/92/64 38/83/64
f 146/78/65 152/69/65 84/72/65 33/79/65
f 17/6/66 82/36/66 78/48/66 6/7/66
f 128/10/67 134/43/67 79/46/67 9/11/67
f 110/18/68 116/39/68 80/42/68 11/19/68
f 102/26/69 107/37/69 81/33/69 14/27/69
f 14/27/70 81/33/70 82/36/70 17/6/70
f 121/126/71 126/129/71 99/132/71 54/127/71
f 139/110/72 144/113/72 98/116/72 48/111/72
f 19/100/73 89/101/73 97/85/73 44/90/73
f 44/90/74 97/85/74 96/88/74 39/91/74
f 147/70/75 153/73/75 95/76/75 34/71/75
f 23/34/76 93/32/76 94/1/76 24/35/76
f 103/38/77 108/29/77 93/32/77 23/34/77
f 111/40/78 117/21/78 92/24/78 22/41/78
f 129/44/79 135/13/79 91/16/79 21/45/79
f 24/35/80 94/1/80 90/4/80 20/47/80
f 22/41/81 92/24/81 108/29/81 103/38/81
f 11/19/82 80/42/82 107/37/82 102/26/82
f 12/151/83 69/58/83 106/53/83 100/152/83
f 28/57/84 59/20/84 105/25/84 104/54/84
f 69/58/85 28/57/85 104/54/85 106/53/85
f 80/42/86 22/41/86 103/38/86 107/37/86
f 92/24/87 10/23/87 101/30/87 108/29/87
f 59/20/88 11/19/88 102/26/88 105/25/88
f 54/127/89 99/132/89 117/21/89 111/40/89
f 53/135/90 88/128/90 116/39/90 110/18/90
f 51/138/91 77/124/91 115/55/91 113/150/91
f 55/123/92 66/136/92 114/17/92 112/56/92
f 77/124/93 55/123/93 112/56/93 115/55/93
f 88/128/94 54/127/94 111/40/94 116/39/94
f 99/132/95 52/131/95 109/22/95 117/21/95
f 66/136/96 53/135/96 110/18/96 114/17/96
f 21/45/97 91/16/97 126/129/97 121/126/97
f 9/11/98 79/46/98 125/125/98 120/134/98
f 7/149/99 68/62/99 124/121/99 118/137/99
f 27/61/100 58/12/100 123/133/100 122/122/100
f 58/12/101 9/11/101 120/134/101 123/133/101
f 91/16/102 8/15/102 119/130/102 126/129/102
f 79/46/103 21/45/103 121/126/103 125/125/103
f 68/62/104 27/61/104 122/122/104 124/121/104
f 48/111/105 98/116/105 135/13/105 129/44/105
f 47/119/106 87/112/106 134/43/106 128/10/106
f 50/140/107 76/108/107 133/59/107 131/148/107
f 49/107/108 65/120/108 132/9/108 130/60/108
f 76/108/109 49/107/109 130/60/109 133/59/109
f 87/112/110 48/111/110 129/44/110 134/43/110
f 98/116/111 46/115/111 127/14/111 135/13/111
f 65/120/112 47/119/112 128/10/112 132/9/112
f 34/71/113 95/76/113 144/113/113 139/110/113
f 33/79/114 84/72/114 143/109/114 138/118/114
f 31/145/115 73/68/115 142/105/115 136/139/115
f 35/67/116 62/80/116 141/117/116 140/106/116
f 62/80/117 33/79/117 138/118/117 141/117/117
f 95/76/118 32/75/118 137/114/118 144/113/118
f 84/72/119 34/71/119 139/110/119 143/109/119
f 73/68/120 35/67/120 140/106/120 142/105/120
f 39/91/121 96/88/121 153/73/121 147/70/121
f 38/83/122 85/92/122 152/69/122 146/78/122
f 36/143/123 74/96/123 151/65/123 149/144/123
f 40/95/124 63/84/124 150/77/124 148/66/124
f 63/84/125 38/83/125 146/78/125 150/77/125
f 96/88/126 37/87/126 145/74/126 153/73/126
f 85/92/127 39/91/127 147/70/127 152/69/127
f 74/96/128 40/95/128 148/66/128 151/65/128
